<svg xmlns="http://www.w3.org/2000/svg" viewBox="0 0 32 32"><path fill="#25D366" d="M16 3C8.8 3 3 8.8 3 16c0 2.3.6 4.5 1.8 6.5L3.6 29l6.7-1.8c1.8 1 3.8 1.5 5.9 1.5 7.2 0 13-5.8 13-13S23.2 3 16 3z"/><path fill="#fff" d="M23.2 19.4c-.4-.2-2.2-1.1-2.5-1.2-.3-.1-.6-.2-.8.2-.2.4-.9 1.2-1.1 1.4-.2.2-.4.3-.8.1-2.2-1.1-3.7-2-5.2-4.6-.4-.7.4-.7 1.1-2.2.1-.2 0-.5-.1-.7-.1-.2-.8-1.9-1.1-2.6-.3-.7-.6-.6-.8-.6h-.7c-.2 0-.7.1-1 .5-.3.4-1.3 1.3-1.3 3.1s1.3 3.6 1.5 3.9c.2.2 2.6 4 6.3 5.6.9.4 1.6.6 2.1.8.9.3 1.7.3 2.3.2.7-.1 2.2-.9 2.5-1.8.3-.9.3-1.6.2-1.8-.1-.1-.3-.2-.6-.4z"/></svg>